<svg width="27" height="22" viewBox="0 0 27 22" fill="none" xmlns="http://www.w3.org/2000/svg">
<path d="M12.0088 1.91419C9.42212 1.03662 2.20346 -0.662442 0.399456 1.10703C0.151664 1.34928 0.0113256 1.67717 0.00878906 2.01981V18.5801C0.00879501 18.809 0.0704076 19.0339 0.187435 19.2321C0.304461 19.4303 0.472779 19.5949 0.67547 19.7093C0.878162 19.8238 1.10808 19.884 1.34213 19.884C1.57618 19.884 1.8061 19.8238 2.00879 19.7093C3.42079 19.3312 10.3621 20.7186 12.0088 21.6653V1.91419Z" fill="url(#paint0_linear_1_8153)"/>
<path d="M26.2848 1.10703C24.4795 -0.661138 17.2621 1.03662 14.6755 1.91419V21.6666C16.3208 20.7199 23.2568 19.3338 24.6755 19.7106C24.8782 19.8251 25.1083 19.8854 25.3424 19.8853C25.5766 19.8853 25.8066 19.8249 26.0093 19.7103C26.2121 19.5957 26.3804 19.4309 26.4973 19.2325C26.6142 19.0341 26.6757 18.8091 26.6755 18.5801V2.01981C26.6729 1.67717 26.5326 1.34928 26.2848 1.10703Z" fill="url(#paint1_linear_1_8153)"/>
<defs>
<linearGradient id="paint0_linear_1_8153" x1="-15.5735" y1="-16.4906" x2="51.5904" y2="46.5186" gradientUnits="userSpaceOnUse">
<stop stop-color="#DB2777"/>
<stop offset="1" stop-color="#F97316"/>
</linearGradient>
<linearGradient id="paint1_linear_1_8153" x1="-15.5735" y1="-16.4906" x2="51.5904" y2="46.5186" gradientUnits="userSpaceOnUse">
<stop stop-color="#DB2777"/>
<stop offset="1" stop-color="#F97316"/>
</linearGradient>
</defs>
</svg>
