<svg width="32" height="32" viewBox="0 0 32 32" fill="none" xmlns="http://www.w3.org/2000/svg">
<path d="M8.78722 26.305C8.90973 26.3756 9.03347 26.4362 9.15722 26.4875L4.2766 31.37C4.09785 31.5468 3.86535 31.6181 3.65847 31.5575C3.44972 31.4987 3.32722 31.3256 3.33223 31.0968L3.38035 28.6806C3.38598 28.3968 3.18348 28.1931 2.90035 28.1987L0.4816 28.2481C0.254725 28.2518 0.080975 28.1293 0.0209751 27.9218C-0.0390249 27.7131 0.0316001 27.4806 0.208475 27.3037L5.17098 22.3412C5.25098 22.3643 5.33222 22.3856 5.41535 22.4012L6.59535 22.6406C6.9216 22.7062 7.1466 22.9331 7.20848 23.2587L7.4266 24.3856C7.58598 25.21 8.06285 25.8812 8.78722 26.305ZM31.7904 27.3043L26.8154 22.3293C26.7354 22.3506 26.656 22.37 26.5729 22.3862L25.446 22.6043C25.1197 22.6681 24.8935 22.8912 24.8279 23.2175L24.5885 24.3993C24.4222 25.2212 23.9404 25.8893 23.2116 26.3056C23.0891 26.375 22.9654 26.435 22.8397 26.4862L27.7241 31.3706C27.901 31.5475 28.1354 31.6187 28.3422 31.5581C28.5497 31.4993 28.6735 31.3262 28.6685 31.0975L28.6191 28.6812C28.6135 28.3975 28.8172 28.1937 29.101 28.1993L31.5172 28.2487C31.746 28.2525 31.9191 28.13 31.9797 27.9225C32.0404 27.7131 31.9672 27.4812 31.7904 27.3043ZM15.9997 9.61621C15.4485 9.61621 14.951 9.83933 14.5897 10.2006C14.2285 10.5618 14.0054 11.0618 14.0054 11.6125C14.0054 12.1637 14.2285 12.6612 14.5897 13.0225C14.951 13.3837 15.4491 13.6068 15.9997 13.6068C16.551 13.6068 17.0504 13.3837 17.4116 13.0225C17.771 12.6612 17.996 12.1631 17.996 11.6125C17.996 11.0612 17.771 10.5618 17.4116 10.2006C17.0504 9.83933 16.5504 9.61621 15.9997 9.61621ZM16.981 15.7493H15.0197C14.1891 15.7493 13.4341 16.0893 12.8866 16.6368C12.3391 17.1843 11.9991 17.9406 11.9991 18.77V19.4287C13.1278 20.235 14.5079 20.7081 15.9997 20.7081C17.4916 20.7081 18.8735 20.235 20.0016 19.4287V18.77C20.0016 17.9406 19.6616 17.1843 19.1141 16.6368C18.5666 16.0893 17.8122 15.7493 16.981 15.7493ZM22.8947 13.8131C22.8947 15.64 22.186 17.3 21.0272 18.5331C20.9672 17.5125 20.526 16.5893 19.8435 15.9075C19.1085 15.1737 18.0947 14.7187 16.9804 14.7187H15.0191C13.9029 14.7187 12.8897 15.1743 12.156 15.9075C11.4741 16.5893 11.0329 17.5125 10.9722 18.5331C9.81347 17.3 9.10285 15.64 9.10285 13.8131C9.10285 11.9087 9.87535 10.185 11.1222 8.93746C12.371 7.68996 14.0954 6.91808 15.9979 6.91808C17.9022 6.91808 19.626 7.69058 20.8754 8.93746C22.1241 10.1843 22.8947 11.9087 22.8947 13.8131ZM19.0272 11.6125C19.0272 10.7762 18.6891 10.02 18.1416 9.47058C17.5922 8.92308 16.836 8.58496 15.9997 8.58496C15.1635 8.58496 14.4072 8.92308 13.8597 9.47058C13.3122 10.02 12.9741 10.7762 12.9741 11.6125C12.9741 12.4468 13.3122 13.205 13.8597 13.7525C14.4072 14.3 15.1635 14.6381 15.9997 14.6381C16.836 14.6381 17.5922 14.3 18.1416 13.7525C18.6891 13.2056 19.0272 12.4468 19.0272 11.6125ZM22.6997 25.4087C22.2285 25.6781 21.7185 25.7256 21.206 25.5487L20.1216 25.175C19.411 24.9287 18.6654 25.1256 18.1691 25.6887L17.3716 26.5925C17.0122 26.9981 16.546 27.2075 16.0041 27.2056C15.4622 27.2037 14.996 26.9893 14.6397 26.58L13.8885 25.7137C13.396 25.1468 12.6516 24.9431 11.9397 25.1825L10.7985 25.5668C10.2847 25.7387 9.77472 25.6875 9.3066 25.4125C8.8391 25.1393 8.54097 24.7231 8.43847 24.19L8.22223 23.0625C8.08035 22.3256 7.5366 21.7781 6.8016 21.6293L5.61973 21.39C5.08848 21.2818 4.67347 20.9825 4.4041 20.5131C4.13473 20.0418 4.08848 19.5318 4.2641 19.0193L4.63973 17.935C4.8841 17.2243 4.68785 16.4787 4.12598 15.9825L3.22222 15.185C2.81472 14.8256 2.60597 14.3575 2.60722 13.8156C2.61098 13.275 2.82348 12.8093 3.23285 12.4531L4.10098 11.7018C4.66785 11.2093 4.86972 10.465 4.63097 9.75308L4.24848 8.61183C4.07473 8.09808 4.12785 7.58808 4.40098 7.11996C4.6741 6.65058 5.09223 6.35433 5.62348 6.25183L6.75035 6.03371C7.48723 5.89183 8.0366 5.34808 8.18535 4.61308L8.42285 3.43121C8.53097 2.89996 8.83035 2.48496 9.3016 2.21558C9.77285 1.94621 10.2816 1.89871 10.7954 2.07558L11.8797 2.45121C12.5885 2.69558 13.3341 2.49933 13.8322 1.93558L14.6297 1.03371C14.9879 0.626207 15.4553 0.417457 15.9972 0.418707C16.5391 0.422457 17.0054 0.634957 17.3597 1.04433L18.1129 1.91246C18.6035 2.47933 19.3497 2.68121 20.0597 2.44246L21.2022 2.05996C21.716 1.88621 22.226 1.93933 22.6941 2.21246C23.1616 2.48558 23.4578 2.90371 23.5604 3.43496L23.7785 4.56183C23.9222 5.29871 24.4641 5.84621 25.201 5.99496L26.381 6.23433C26.9122 6.34246 27.3291 6.64183 27.5966 7.11308C27.866 7.58246 27.9135 8.09308 27.7366 8.60496L27.3629 9.69121C27.1166 10.4 27.3135 11.1456 27.8766 11.6437L28.7804 12.4412C29.186 12.7993 29.3966 13.2668 29.3935 13.8087C29.3916 14.3506 29.1772 14.8168 28.7679 15.1712L27.9016 15.9225C27.3347 16.415 27.131 17.1593 27.3704 17.8712L27.7547 19.0137C27.9266 19.5275 27.8754 20.0362 27.6022 20.5056C27.3291 20.9731 26.911 21.2693 26.3779 21.3718L25.251 21.59C24.5141 21.7337 23.9666 22.2756 23.8179 23.0125L23.5785 24.1925C23.4704 24.7243 23.1697 25.1393 22.6997 25.4087ZM23.9279 13.8131C23.9279 11.6231 23.0403 9.64246 21.6054 8.20746C20.1722 6.77246 18.1897 5.88496 15.9997 5.88496C13.8116 5.88496 11.8291 6.77246 10.3941 8.20746C8.9591 9.64246 8.07347 11.6231 8.07347 13.8131C8.07347 16.0031 8.9591 17.9837 10.3941 19.4187C11.8291 20.8537 13.8116 21.7412 15.9997 21.7412C18.1897 21.7412 20.1722 20.8537 21.6054 19.4187C23.0403 17.9837 23.9279 16.0025 23.9279 13.8131Z" fill="url(#paint0_linear_1_8115)"/>
<defs>
<linearGradient id="paint0_linear_1_8115" x1="-18.6992" y1="-24.1551" x2="76.363" y2="49.1137" gradientUnits="userSpaceOnUse">
<stop stop-color="#DB2777"/>
<stop offset="1" stop-color="#F97316"/>
</linearGradient>
</defs>
</svg>
