<svg width="28" height="24" viewBox="0 0 28 24" fill="none" xmlns="http://www.w3.org/2000/svg">
<path d="M24.6665 0H3.33317C2.62593 0 1.94765 0.280951 1.44755 0.781048C0.947455 1.28115 0.666504 1.95942 0.666504 2.66667V21.3333C0.666504 22.0406 0.947455 22.7189 1.44755 23.219C1.94765 23.719 2.62593 24 3.33317 24H24.6665C25.3737 24 26.052 23.719 26.5521 23.219C27.0522 22.7189 27.3332 22.0406 27.3332 21.3333V2.66667C27.3332 1.95942 27.0522 1.28115 26.5521 0.781048C26.052 0.280951 25.3737 0 24.6665 0ZM17.3332 5.33333C17.7287 5.33333 18.1154 5.45063 18.4443 5.67039C18.7732 5.89016 19.0296 6.20251 19.1809 6.56797C19.3323 6.93342 19.3719 7.33555 19.2947 7.72351C19.2176 8.11148 19.0271 8.46784 18.7474 8.74755C18.4677 9.02725 18.1113 9.21773 17.7234 9.2949C17.3354 9.37208 16.9333 9.33247 16.5678 9.18109C16.2024 9.02972 15.89 8.77337 15.6702 8.44447C15.4505 8.11557 15.3332 7.7289 15.3332 7.33333C15.3332 6.8029 15.5439 6.29419 15.919 5.91912C16.294 5.54405 16.8027 5.33333 17.3332 5.33333ZM23.1678 19.308C23.053 19.5174 22.884 19.6921 22.6785 19.8138C22.473 19.9355 22.2387 19.9998 21.9998 20H5.99984C5.77254 20.0001 5.54898 19.9421 5.35041 19.8315C5.15183 19.7209 4.98483 19.5614 4.86526 19.368C4.74569 19.1747 4.67753 18.9541 4.66725 18.727C4.65696 18.4999 4.7049 18.274 4.8065 18.0707L9.47317 8.73733C9.5806 8.52205 9.74428 8.33984 9.94685 8.21003C10.1494 8.08022 10.3834 8.00765 10.6238 8C10.8664 7.98651 11.1078 8.04195 11.3202 8.15993C11.5325 8.27791 11.7072 8.45359 11.8238 8.66667L15.5238 15.0093L17.5852 12.4933C17.7191 12.3303 17.8897 12.2013 18.0832 12.117C18.2766 12.0328 18.4873 11.9956 18.6979 12.0086C18.9085 12.0216 19.113 12.0845 19.2946 12.1919C19.4762 12.2993 19.6297 12.4483 19.7425 12.6267L23.1305 17.96C23.256 18.1611 23.3256 18.392 23.3322 18.6289C23.3387 18.8659 23.282 19.1003 23.1678 19.308Z" fill="url(#paint0_linear_2117_8201)"/>
<defs>
<linearGradient id="paint0_linear_2117_8201" x1="-14.9158" y1="-18.9268" x2="59.5657" y2="43.1835" gradientUnits="userSpaceOnUse">
<stop stop-color="#DB2777"/>
<stop offset="1" stop-color="#F97316"/>
</linearGradient>
</defs>
</svg>
