<svg width="32" height="32" viewBox="0 0 32 32" fill="none" xmlns="http://www.w3.org/2000/svg">
<path fill-rule="evenodd" clip-rule="evenodd" d="M18.4914 0.192015C18.269 0.157195 18.0419 0.166527 17.8231 0.219475C17.6043 0.272424 17.398 0.367953 17.2161 0.500608C17.0342 0.633263 16.8802 0.800446 16.763 0.992612C16.6457 1.18478 16.5674 1.39816 16.5326 1.62059C16.4978 1.84301 16.5071 2.07011 16.56 2.28893C16.613 2.50774 16.7085 2.71398 16.8412 2.89588C16.9738 3.07778 17.141 3.23177 17.3332 3.34905C17.5253 3.46634 17.7387 3.54462 17.9611 3.57944C21.0794 4.08157 23.8946 5.73868 25.8471 8.22137C27.7996 10.7041 28.7464 13.8305 28.4993 16.9793C28.2522 20.1281 26.8293 23.0686 24.5135 25.2164C22.1977 27.3641 19.1585 28.5619 16 28.5714C13.4793 28.5719 11.0167 27.8149 8.93151 26.3985C6.84636 24.9822 5.23493 22.972 4.30629 20.6286C4.22829 20.4128 4.10775 20.2148 3.95182 20.0464C3.79589 19.878 3.60774 19.7427 3.39852 19.6484C3.18931 19.5541 2.96329 19.5027 2.73386 19.4974C2.50443 19.4921 2.27627 19.5329 2.0629 19.6173C1.84953 19.7018 1.6553 19.8283 1.49171 19.9893C1.32813 20.1502 1.19853 20.3424 1.1106 20.5543C1.02267 20.7663 0.978188 20.9938 0.979802 21.2233C0.981417 21.4528 1.02909 21.6796 1.12 21.8903C2.49318 25.3496 5.02905 28.2221 8.29132 30.0137C11.5536 31.8053 15.3383 32.4039 18.9942 31.7065C22.6501 31.0092 25.9487 29.0594 28.3225 26.1928C30.6962 23.3262 31.9966 19.7219 32 16C31.9998 12.1881 30.6391 8.50135 28.1626 5.60339C25.6862 2.70542 22.2567 0.786508 18.4914 0.192015ZM14.0891 1.51087C14.1455 1.7291 14.1582 1.95629 14.1267 2.17945C14.0951 2.4026 14.0199 2.61735 13.9052 2.81139C13.7906 3.00544 13.6388 3.17497 13.4586 3.31029C13.2783 3.44561 13.0732 3.54406 12.8549 3.60001C12.2822 3.74736 11.7208 3.93526 11.1749 4.1623C10.967 4.24875 10.7441 4.29341 10.519 4.29373C10.2939 4.29405 10.0709 4.25002 9.8628 4.16417C9.65469 4.07832 9.46553 3.95231 9.30612 3.79335C9.1467 3.63439 9.02016 3.44559 8.93371 3.23773C8.84727 3.02987 8.80261 2.80701 8.80229 2.58189C8.80197 2.35676 8.84599 2.13378 8.93184 1.92567C9.0177 1.71756 9.1437 1.5284 9.30266 1.36899C9.46162 1.20958 9.65042 1.08303 9.85829 0.996586C10.5486 0.708586 11.264 0.468586 12.0023 0.278872C12.2204 0.222874 12.4473 0.21038 12.6702 0.242104C12.8931 0.273829 13.1076 0.34915 13.3014 0.463766C13.4952 0.578383 13.6645 0.73005 13.7996 0.910105C13.9348 1.09016 14.0332 1.29279 14.0891 1.51087ZM7.28 4.32916C7.59623 4.65541 7.77 5.09385 7.76314 5.54816C7.75629 6.00246 7.56936 6.43546 7.24343 6.75202C6.39353 7.58036 5.66275 8.52269 5.072 9.55201C4.96334 9.75307 4.81558 9.93037 4.6374 10.0735C4.45922 10.2166 4.25423 10.3226 4.03447 10.3854C3.81471 10.4481 3.58463 10.4663 3.35775 10.4388C3.13087 10.4113 2.91178 10.3388 2.71335 10.2254C2.51492 10.112 2.34117 9.96006 2.20231 9.77855C2.06345 9.59704 1.96229 9.38959 1.90477 9.16841C1.84725 8.94723 1.83454 8.71678 1.86738 8.49061C1.90022 8.26445 1.97795 8.04713 2.096 7.85144C2.84459 6.54132 3.77412 5.34324 4.85714 4.29259C5.18339 3.97636 5.62184 3.80258 6.07614 3.80944C6.53044 3.8163 6.96344 4.00323 7.28 4.32916ZM2.09371 12.0686C2.54378 12.132 2.95022 12.3716 3.22368 12.7347C3.49714 13.0977 3.61523 13.5545 3.552 14.0046C3.46956 14.5915 3.42832 15.1834 3.42857 15.776C3.42857 16.2307 3.24796 16.6667 2.92647 16.9882C2.60498 17.3097 2.16894 17.4903 1.71429 17.4903C1.25963 17.4903 0.823594 17.3097 0.502103 16.9882C0.180612 16.6667 0 16.2307 0 15.776C0 15.0149 0.0525714 14.2629 0.157714 13.5269C0.221168 13.0768 0.460754 12.6704 0.823797 12.3969C1.18684 12.1234 1.64362 12.0054 2.09371 12.0686ZM10.2857 20.3017V11.6983C10.2859 11.3088 10.3856 10.9259 10.5754 10.5858C10.7652 10.2457 11.0387 9.9597 11.37 9.755C11.7014 9.55029 12.0795 9.43364 12.4686 9.41612C12.8577 9.3986 13.2448 9.48078 13.5931 9.65487L22.1966 13.9566C22.5757 14.1466 22.8945 14.4384 23.1173 14.7993C23.3401 15.1602 23.4581 15.5759 23.4581 16C23.4581 16.4241 23.3401 16.8399 23.1173 17.2008C22.8945 17.5616 22.5757 17.8534 22.1966 18.0434L13.5931 22.3452C13.2448 22.5193 12.8577 22.6014 12.4686 22.5839C12.0795 22.5664 11.7014 22.4497 11.37 22.245C11.0387 22.0403 10.7652 21.7544 10.5754 21.4143C10.3856 21.0742 10.2859 20.6912 10.2857 20.3017Z" fill="url(#paint0_linear_2117_8182)"/>
<defs>
<linearGradient id="paint0_linear_2117_8182" x1="-18.6988" y1="-24.9214" x2="77.8354" y2="47.9417" gradientUnits="userSpaceOnUse">
<stop stop-color="#DB2777"/>
<stop offset="1" stop-color="#F97316"/>
</linearGradient>
</defs>
</svg>
