<svg width="32" height="32" viewBox="0 0 32 32" fill="none" xmlns="http://www.w3.org/2000/svg">
<path d="M15.135 2.1C14.9 2.085 14.66 2.08 14.42 2.08C6.75 2.08 0.51 8.315 0.5 15.98V16.015C0.51 23.625 6.655 29.815 14.24 29.91C14.3 29.91 14.36 29.92 14.42 29.92C14.66 29.915 14.9 29.91 15.135 29.895C14.72 29.125 14.49 28.25 14.49 27.315C14.49 26.06 14.91 24.9 15.62 23.975V8.025C14.91 7.1 14.49 5.94 14.49 4.685C14.49 3.75 14.725 2.87 15.135 2.1ZM2.905 16.005V15.995C2.915 15.56 4.005 14.5 7.075 13.715C7.01 14.47 6.975 15.235 6.975 16C6.975 16.765 7.01 17.53 7.075 18.28C4.005 17.5 2.915 16.44 2.905 16.005ZM3.465 19.54C4.525 20.06 5.85 20.495 7.42 20.83C7.83 22.995 8.5 24.87 9.365 26.345C6.585 24.98 4.43 22.525 3.465 19.54ZM7.42 11.17C5.85 11.5 4.525 11.94 3.465 12.46C4.43 9.475 6.585 7.02 9.365 5.655C8.5 7.13 7.83 9 7.42 11.17ZM13.215 27.135C11.865 26.29 10.645 24.1 9.965 21.245C11.01 21.375 12.1 21.455 13.215 21.49V27.135ZM13.215 19.085C11.935 19.045 10.695 18.935 9.53 18.76C9.43 17.855 9.375 16.93 9.375 16C9.375 15.07 9.43 14.14 9.535 13.235C10.695 13.065 11.935 12.955 13.215 12.915V19.085ZM13.215 10.51C12.1 10.545 11.01 10.625 9.965 10.75C10.645 7.89 11.875 5.69 13.215 4.855V10.51Z" fill="url(#paint0_linear_1_8101)"/>
<path d="M21.06 3.67C21.06 3.67 21.04 3.67 21.025 3.675C21.01 3.68 20.995 3.675 20.995 3.66C20.935 3.085 20.52 2.715 20.015 2.715C19.51 2.715 19.095 3.085 19.035 3.66C19.035 3.675 19.015 3.685 19.005 3.675C18.995 3.67 18.98 3.665 18.97 3.67C18.915 3.68 18.89 3.795 18.915 3.925C18.94 4.055 19 4.155 19.055 4.145C19.06 4.145 19.065 4.145 19.07 4.14C19.115 4.335 19.21 4.525 19.295 4.655C19.475 4.925 19.705 5.1 20.015 5.1C20.325 5.1 20.555 4.925 20.735 4.655C20.82 4.525 20.915 4.335 20.96 4.14C20.965 4.14 20.97 4.145 20.975 4.145C21.03 4.155 21.09 4.055 21.115 3.925C21.14 3.795 21.115 3.68 21.06 3.67Z" fill="url(#paint1_linear_1_8101)"/>
<path d="M28.235 14.935C28.235 14.935 28.21 14.935 28.2 14.94C28.185 14.95 28.17 14.94 28.165 14.925C28.1 14.32 27.665 13.93 27.13 13.93C26.595 13.93 26.16 14.32 26.095 14.925C26.095 14.94 26.075 14.95 26.06 14.94C26.05 14.935 26.035 14.93 26.025 14.935C25.97 14.945 25.94 15.065 25.965 15.2C25.99 15.335 26.055 15.44 26.11 15.43C26.115 15.43 26.12 15.43 26.13 15.42C26.18 15.625 26.275 15.825 26.37 15.965C26.56 16.25 26.8 16.43 27.13 16.43C27.46 16.43 27.7 16.25 27.89 15.965C27.98 15.83 28.08 15.625 28.13 15.42C28.135 15.42 28.14 15.425 28.15 15.43C28.205 15.44 28.275 15.335 28.295 15.2C28.315 15.065 28.295 14.945 28.235 14.935Z" fill="url(#paint2_linear_1_8101)"/>
<path d="M27.6452 11.665C27.0752 9.935 26.1802 8.355 25.0252 7C24.7002 6.615 24.3502 6.245 23.9802 5.9C24.0952 5.515 24.1602 5.11 24.1602 4.685C24.1602 2.395 22.3002 0.535 20.0102 0.535C18.6252 0.535 17.4002 1.215 16.6502 2.26C16.1752 2.915 15.8902 3.715 15.8652 4.58V4.685C15.8652 6.97 17.7252 8.83 20.0102 8.83C20.9952 8.83 21.8952 8.485 22.6102 7.915C22.9302 8.24 23.2352 8.585 23.5102 8.945C24.2402 9.885 24.8302 10.935 25.2402 12.07C23.7802 12.775 22.7702 14.275 22.7702 16C22.7702 17.725 23.7802 19.225 25.2402 19.93C24.8302 21.065 24.2402 22.115 23.5102 23.055C23.2352 23.415 22.9302 23.76 22.6102 24.085C21.8952 23.515 20.9952 23.17 20.0102 23.17C17.7252 23.17 15.8652 25.03 15.8652 27.315V27.42C15.8902 28.28 16.1752 29.08 16.6452 29.735C17.3952 30.78 18.6252 31.465 20.0102 31.465C22.3002 31.465 24.1602 29.605 24.1602 27.315C24.1602 26.89 24.0952 26.48 23.9802 26.095C24.3502 25.755 24.7002 25.385 25.0252 24.995C26.1802 23.64 27.0752 22.065 27.6452 20.335C29.8102 20.08 31.5002 18.23 31.5002 16C31.5002 13.77 29.8102 11.92 27.6452 11.665ZM21.7002 7.085L21.7602 5.935C21.7752 5.83 21.7552 5.73 21.7102 5.64C21.6502 5.53 21.5502 5.445 21.4252 5.425L20.7002 5.25L20.4702 5.36C20.3302 5.435 20.1702 5.47 20.0152 5.47C19.8602 5.47 19.6952 5.43 19.5552 5.36L19.3302 5.245L18.6002 5.42C18.4752 5.44 18.3752 5.525 18.3102 5.635C18.2702 5.72 18.2452 5.82 18.2602 5.925L18.3202 7.08C17.6002 6.57 17.1152 5.74 17.0802 4.8C17.0802 4.76 17.0802 4.725 17.0802 4.685C17.0802 3.88 17.4052 3.15 17.9302 2.62C17.9552 2.59 17.9802 2.57 18.0052 2.55C18.5302 2.05 19.2402 1.745 20.0152 1.745C20.7902 1.745 21.5602 2.075 22.0952 2.61H22.1002C22.6252 3.145 22.9552 3.875 22.9552 4.685C22.9552 4.79 22.9502 4.895 22.9352 5C22.8452 5.86 22.3802 6.61 21.7052 7.085H21.7002ZM21.7002 29.715L21.7602 28.565C21.7752 28.46 21.7552 28.36 21.7102 28.275C21.6502 28.165 21.5502 28.08 21.4252 28.055L20.7002 27.88L20.4702 27.995C20.3302 28.065 20.1702 28.1 20.0152 28.1C19.8602 28.1 19.6952 28.065 19.5552 27.99L19.3302 27.88L18.6002 28.05C18.4752 28.07 18.3702 28.155 18.3102 28.27C18.2652 28.355 18.2452 28.455 18.2602 28.56L18.3202 29.715C18.2052 29.635 18.0952 29.545 17.9952 29.445C17.4302 28.91 17.0752 28.155 17.0752 27.315C17.0752 27.275 17.0752 27.24 17.0752 27.2C17.1002 26.435 17.4252 25.75 17.9252 25.245H17.9302C18.4602 24.71 19.1952 24.38 20.0052 24.38C20.6302 24.38 21.2102 24.575 21.6902 24.91C21.8302 25.01 21.9652 25.12 22.0852 25.24C22.5452 25.7 22.8552 26.31 22.9252 26.995C22.9402 27.1 22.9452 27.205 22.9452 27.315C22.9452 28.305 22.4502 29.185 21.6952 29.715H21.7002ZM28.9102 18.525L28.9752 17.315C29.0102 17.06 28.8552 16.825 28.6252 16.78L28.3152 16.705L27.8552 16.595L27.6202 16.715C27.4702 16.79 27.3052 16.83 27.1352 16.825C26.9652 16.825 26.8002 16.785 26.6502 16.71L26.4152 16.59L25.6452 16.775C25.4202 16.815 25.2602 17.055 25.2952 17.305L25.3552 18.525C24.5652 17.965 24.0452 17.04 24.0452 16C24.0452 14.845 24.6802 13.84 25.6152 13.31C26.0652 13.055 26.5802 12.91 27.1352 12.91C27.4402 12.91 27.7352 12.955 28.0152 13.04C29.2902 13.415 30.2252 14.6 30.2252 16C30.2252 17.045 29.7052 17.965 28.9102 18.525Z" fill="url(#paint3_linear_1_8101)"/>
<path d="M21.06 26.3049C21.06 26.3049 21.04 26.3049 21.025 26.3099C21.01 26.3149 20.995 26.3099 20.995 26.2949C20.935 25.7199 20.52 25.3499 20.015 25.3499C19.51 25.3499 19.095 25.7199 19.035 26.2949C19.035 26.3099 19.015 26.3199 19.005 26.3099C18.995 26.3049 18.98 26.2999 18.97 26.3049C18.915 26.3149 18.89 26.4299 18.915 26.5599C18.94 26.6899 19 26.7899 19.055 26.7799C19.06 26.7799 19.065 26.7799 19.07 26.7749C19.115 26.9699 19.21 27.1599 19.295 27.2899C19.475 27.5599 19.705 27.7349 20.015 27.7349C20.325 27.7349 20.555 27.5599 20.735 27.2899C20.82 27.1599 20.915 26.9699 20.96 26.7749C20.965 26.7749 20.97 26.7799 20.975 26.7799C21.03 26.7899 21.09 26.6899 21.115 26.5599C21.14 26.4299 21.115 26.3149 21.06 26.3049Z" fill="url(#paint4_linear_1_8101)"/>
<defs>
<linearGradient id="paint0_linear_1_8101" x1="-8.33518" y1="-19.8751" x2="53.0623" y2="5.15082" gradientUnits="userSpaceOnUse">
<stop stop-color="#DB2777"/>
<stop offset="1" stop-color="#F97316"/>
</linearGradient>
<linearGradient id="paint1_linear_1_8101" x1="17.6084" y1="0.834146" x2="24.6724" y2="5.76774" gradientUnits="userSpaceOnUse">
<stop stop-color="#DB2777"/>
<stop offset="1" stop-color="#F97316"/>
</linearGradient>
<linearGradient id="paint2_linear_1_8101" x1="24.585" y1="11.9585" x2="32.0112" y2="17.1896" gradientUnits="userSpaceOnUse">
<stop stop-color="#DB2777"/>
<stop offset="1" stop-color="#F97316"/>
</linearGradient>
<linearGradient id="paint3_linear_1_8101" x1="6.72912" y1="-23.857" x2="71.4506" y2="0.697156" gradientUnits="userSpaceOnUse">
<stop stop-color="#DB2777"/>
<stop offset="1" stop-color="#F97316"/>
</linearGradient>
<linearGradient id="paint4_linear_1_8101" x1="17.6084" y1="23.4691" x2="24.6724" y2="28.4027" gradientUnits="userSpaceOnUse">
<stop stop-color="#DB2777"/>
<stop offset="1" stop-color="#F97316"/>
</linearGradient>
</defs>
</svg>
