<svg width="32" height="32" viewBox="0 0 32 32" fill="none" xmlns="http://www.w3.org/2000/svg">
<g clip-path="url(#clip0_1_8210)">
<path d="M13 11C13.5523 11 14 10.5523 14 10C14 9.44772 13.5523 9 13 9C12.4477 9 12 9.44772 12 10C12 10.5523 12.4477 11 13 11Z" fill="#FAFAFA"/>
<path d="M7 6V18H19V6H7ZM17 16C17 16.55 16.55 17 16 17H10C9.45 17 9 16.55 9 16V14.63C9 13.41 9.6 12.35 10.52 11.69C10.19 11.21 10 10.62 10 10C10 8.35 11.35 7 13 7C14.65 7 16 8.35 16 10C16 10.62 15.81 11.21 15.48 11.69C16.4 12.35 17 13.41 17 14.63V16Z" fill="#FAFAFA"/>
<path d="M13.3725 13H12.6274C11.7299 13 11 13.7305 11 14.6279V15H15V14.6279C15 13.7304 14.2699 13 13.3725 13Z" fill="#FAFAFA"/>
<path d="M23 0H3C1.35 0 0 1.35 0 3V29C0 30.65 1.35 32 3 32H19.36C18.07 30.97 17.08 29.59 16.52 28H6C5.45 28 5 27.55 5 27C5 26.45 5.45 26 6 26H16.06C16.02 25.67 16 25.34 16 25C16 24.66 16.02 24.33 16.06 24H6C5.45 24 5 23.55 5 23C5 22.45 5.45 22 6 22H16.52C16.77 21.29 17.11 20.62 17.52 20H7C5.9 20 5 19.1 5 18V6C5 4.9 5.9 4 7 4H19C20.1 4 21 4.9 21 6V16.94C22.21 16.34 23.57 16 25 16C25.34 16 25.67 16.02 26 16.06V3C26 1.35 24.65 0 23 0Z" fill="#FAFAFA"/>
<path d="M25 18C21.14 18 18 21.14 18 25C18 28.86 21.14 32 25 32C28.86 32 32 28.86 32 25C32 21.14 28.86 18 25 18ZM27.71 24.44L25.18 26.97C24.99 27.16 24.73 27.27 24.47 27.27C24.2 27.27 23.95 27.16 23.76 26.97L22.29 25.5C21.9 25.11 21.9 24.48 22.29 24.09C22.68 23.7 23.32 23.7 23.71 24.09L24.47 24.85L26.29 23.03C26.68 22.64 27.32 22.64 27.71 23.03C28.1 23.42 28.1 24.05 27.71 24.44Z" fill="#FAFAFA"/>
</g>
<defs>
<clipPath id="clip0_1_8210">
<rect width="32" height="32" fill="white"/>
</clipPath>
</defs>
</svg>
