<svg width="28" height="32" viewBox="0 0 28 32" fill="none" xmlns="http://www.w3.org/2000/svg">
<path fill-rule="evenodd" clip-rule="evenodd" d="M15.2664 17.528H23.9639C24.2911 17.529 24.6047 17.6594 24.8361 17.8908C25.0675 18.1222 25.1979 18.4358 25.1989 18.763V19.8955C25.1979 20.2228 25.0675 20.5363 24.8361 20.7677C24.6047 20.9991 24.2911 21.1295 23.9639 21.1305H15.2664C14.9392 21.1295 14.6257 20.9991 14.3944 20.7677C14.1631 20.5363 14.0328 20.2227 14.032 19.8955V18.763C14.0328 18.4358 14.1631 18.1223 14.3944 17.8909C14.6257 17.6595 14.9392 17.529 15.2664 17.528ZM4.06201 22.1061L2.52514 22.518C2.38633 22.5555 2.26802 22.6465 2.19611 22.771C2.12419 22.8955 2.10451 23.0434 2.14139 23.1824L4.17514 30.7705C4.21248 30.9094 4.30344 31.0278 4.42802 31.0996C4.5526 31.1714 4.70061 31.1909 4.83951 31.1536L6.37451 30.7418C6.51332 30.7043 6.63163 30.6133 6.70355 30.4888C6.77546 30.3643 6.79514 30.2164 6.75826 30.0774L4.72639 22.4893C4.68904 22.3504 4.59809 22.232 4.47351 22.1602C4.34893 22.0883 4.20092 22.0689 4.06201 22.1061ZM7.39764 29.0205C8.84201 28.4861 10.7539 28.9886 12.5526 29.4618C14.1658 29.8855 15.6776 30.283 16.3983 29.8205C19.6551 27.7311 23.5176 25.7093 26.9126 23.7499C27.1939 23.5857 27.399 23.3171 27.4834 23.0025C27.5678 22.688 27.5246 22.3528 27.3633 22.0699C27.017 21.4699 26.2595 21.3305 25.6639 21.6324C24.9508 21.9955 17.012 25.9805 17.0664 26.0699C16.624 26.3268 16.0987 26.4006 15.6026 26.2755C14.257 26.0049 12.6414 25.4824 11.2833 25.1186C11.1723 25.0855 11.0787 25.0104 11.0223 24.9093C10.9658 24.8082 10.951 24.6891 10.9809 24.5773C11.0109 24.4654 11.0832 24.3697 11.1826 24.3103C11.282 24.2509 11.4006 24.2326 11.5133 24.2593L15.8058 25.4093C16.0803 25.4798 16.3715 25.4391 16.6162 25.2962C16.861 25.1533 17.0394 24.9196 17.1129 24.6459C17.1864 24.3722 17.149 24.0806 17.0087 23.8343C16.8685 23.588 16.6368 23.407 16.3639 23.3305L11.222 21.9555C8.51014 21.2286 8.87951 20.7761 5.76514 22.9324L7.39764 29.0249V29.0205ZM3.50389 23.0949C3.63958 23.0581 3.78316 23.0623 3.91644 23.1071C4.04972 23.1519 4.16672 23.2352 4.25263 23.3465C4.33854 23.4578 4.38949 23.5921 4.39904 23.7324C4.40859 23.8727 4.37631 24.0127 4.30629 24.1346C4.23626 24.2565 4.13164 24.3549 4.00566 24.4174C3.87968 24.4798 3.73801 24.5035 3.59857 24.4854C3.45913 24.4673 3.3282 24.4082 3.22234 24.3157C3.11648 24.2232 3.04046 24.1013 3.00389 23.9655C2.95493 23.7838 2.98009 23.59 3.07383 23.4268C3.16757 23.2636 3.32223 23.1442 3.50389 23.0949ZM2.15076 15.0574C1.93212 15.2262 1.65538 15.3013 1.3814 15.2661C1.10742 15.2308 0.858652 15.0882 0.689826 14.8696C0.520999 14.6509 0.44594 14.3742 0.481162 14.1002C0.516383 13.8262 0.659 13.5775 0.877638 13.4086L3.13076 11.6761C3.3153 11.5338 3.54224 11.4574 3.7753 11.4592C4.00837 11.461 4.23409 11.5409 4.41639 11.6861L6.65701 13.4086C6.87565 13.5775 7.01827 13.8262 7.05349 14.1002C7.08871 14.3742 7.01365 14.6509 6.84483 14.8696C6.676 15.0882 6.42723 15.2308 6.15325 15.2661C5.87928 15.3013 5.60253 15.2262 5.38389 15.0574L4.81201 14.6199V18.5686C4.80534 18.8413 4.69235 19.1005 4.49716 19.291C4.30197 19.4815 4.04005 19.5881 3.76733 19.5881C3.4946 19.5881 3.23268 19.4815 3.03749 19.291C2.8423 19.1005 2.72931 18.8413 2.72264 18.5686V14.6168L2.15076 15.0543V15.0574ZM7.40076 8.07177L7.97326 7.63427V11.5861C7.97326 11.8631 8.08329 12.1288 8.27915 12.3246C8.47501 12.5205 8.74065 12.6305 9.01764 12.6305C9.29462 12.6305 9.56026 12.5205 9.75612 12.3246C9.95198 12.1288 10.062 11.8631 10.062 11.5861V7.63177L10.6339 8.06927C10.8524 8.23809 11.1291 8.31319 11.403 8.27802C11.677 8.24286 11.9257 8.10032 12.0945 7.88177C12.2633 7.66321 12.3384 7.38654 12.3033 7.11262C12.2681 6.8387 12.1256 6.58997 11.907 6.42114L9.66701 4.70052C9.4846 4.55548 9.25885 4.47575 9.02582 4.47405C8.79278 4.47235 8.5659 4.54878 8.38139 4.69114L6.12826 6.42364C5.90971 6.59247 5.76717 6.8412 5.73201 7.11512C5.69685 7.38904 5.77194 7.66571 5.94076 7.88427C6.10959 8.10282 6.35832 8.24536 6.63224 8.28052C6.90616 8.31569 7.18283 8.24059 7.40139 8.07177H7.40076ZM19.6151 0.827393C20.5316 0.827393 21.4275 1.09916 22.1895 1.60832C22.9515 2.11748 23.5454 2.84118 23.8962 3.68788C24.2469 4.53459 24.3386 5.46628 24.1599 6.36514C23.9811 7.264 23.5397 8.08966 22.8917 8.7377C22.2437 9.38574 21.418 9.82706 20.5191 10.0059C19.6203 10.1846 18.6886 10.0929 17.8419 9.74217C16.9952 9.39145 16.2715 8.79753 15.7623 8.03552C15.2532 7.2735 14.9814 6.37761 14.9814 5.46114C14.9814 4.2322 15.4696 3.05358 16.3386 2.18459C17.2076 1.31559 18.3862 0.827393 19.6151 0.827393ZM17.9858 6.50802C17.9645 7.25802 18.3895 7.91552 19.1151 8.14927V8.38052C19.1151 8.51313 19.1678 8.6403 19.2616 8.73407C19.3554 8.82784 19.4825 8.88052 19.6151 8.88052C19.7477 8.88052 19.8749 8.82784 19.9687 8.73407C20.0625 8.6403 20.1151 8.51313 20.1151 8.38052V8.14927C20.4855 8.0299 20.801 7.78223 21.005 7.45087C21.2089 7.1195 21.2878 6.72621 21.2275 6.34181C21.1672 5.95742 20.9717 5.60718 20.6761 5.35417C20.3805 5.10116 20.0042 4.96201 19.6151 4.96177C19.4883 4.96127 19.3646 4.92272 19.26 4.8511C19.1554 4.77948 19.0747 4.6781 19.0283 4.56008C18.982 4.44206 18.9721 4.31284 19 4.18917C19.028 4.06549 19.0924 3.95305 19.185 3.8664C19.2775 3.77976 19.394 3.72291 19.5193 3.70321C19.6445 3.68351 19.7728 3.70187 19.8875 3.75592C20.0022 3.80997 20.098 3.8972 20.1626 4.00634C20.2271 4.11547 20.2574 4.24147 20.2495 4.36802C20.2405 4.43617 20.2456 4.50544 20.2646 4.57152C20.2836 4.63759 20.3159 4.69905 20.3597 4.75205C20.4035 4.80505 20.4577 4.84844 20.5191 4.87954C20.5804 4.91063 20.6474 4.92874 20.7161 4.93275C20.7847 4.93675 20.8534 4.92657 20.9179 4.90282C20.9824 4.87908 21.0413 4.84228 21.091 4.79474C21.1406 4.7472 21.18 4.68993 21.2065 4.62651C21.233 4.56309 21.2462 4.49488 21.2451 4.42614C21.2708 3.67239 20.8489 3.00864 20.1164 2.77364V2.54177C20.1164 2.40916 20.0637 2.28198 19.9699 2.18821C19.8762 2.09445 19.749 2.04177 19.6164 2.04177C19.4838 2.04177 19.3566 2.09445 19.2628 2.18821C19.1691 2.28198 19.1164 2.40916 19.1164 2.54177V2.77364C18.7461 2.89301 18.4305 3.14068 18.2266 3.47204C18.0226 3.80341 17.9437 4.19671 18.004 4.5811C18.0643 4.96549 18.2599 5.31573 18.5555 5.56874C18.8511 5.82175 19.2273 5.9609 19.6164 5.96114C19.7429 5.96155 19.8663 5.99984 19.9709 6.07107C20.0754 6.14231 20.1562 6.24322 20.2028 6.36079C20.2495 6.47837 20.2598 6.60722 20.2326 6.73074C20.2053 6.85426 20.1417 6.96677 20.0499 7.05379C19.9581 7.1408 19.8423 7.19832 19.7175 7.21893C19.5927 7.23954 19.4646 7.22229 19.3497 7.16941C19.2348 7.11654 19.1383 7.03045 19.0728 6.92226C19.0073 6.81407 18.9756 6.68872 18.982 6.56239C18.9797 6.43584 18.9295 6.31488 18.8414 6.22391C18.7534 6.13294 18.6342 6.07874 18.5078 6.07224C18.3814 6.06573 18.2572 6.10741 18.1603 6.18887C18.0634 6.27033 18.0011 6.3855 17.9858 6.51114V6.50802ZM15.2664 9.07364C14.9392 9.07463 14.6257 9.20509 14.3944 9.4365C14.1631 9.66791 14.0328 9.98146 14.032 10.3086V11.4411C14.0328 11.7683 14.1631 12.0819 14.3944 12.3133C14.6257 12.5447 14.9392 12.6752 15.2664 12.6761H23.9639C24.2911 12.6752 24.6047 12.5447 24.8361 12.3133C25.0675 12.0819 25.1979 11.7684 25.1989 11.4411V10.3086C25.1979 9.9814 25.0675 9.66785 24.8361 9.43646C24.6047 9.20506 24.2911 9.07463 23.9639 9.07364H23.937C23.4083 9.70642 22.747 10.2154 22.0001 10.5647C21.2531 10.9139 20.4385 11.095 19.6139 11.095C18.7893 11.095 17.9747 10.9139 17.2277 10.5647C16.4807 10.2154 15.8195 9.70642 15.2908 9.07364H15.2664ZM15.2664 13.3011H23.9639C24.2911 13.302 24.6046 13.4323 24.836 13.6636C25.0674 13.8948 25.1979 14.2083 25.1989 14.5355V15.6686C25.1979 15.9958 25.0674 16.3093 24.836 16.5406C24.6046 16.7719 24.2911 16.9022 23.9639 16.903H15.2664C14.9393 16.902 14.6259 16.7717 14.3946 16.5404C14.1634 16.3091 14.033 15.9957 14.032 15.6686V14.5355C14.033 14.2084 14.1634 13.8951 14.3946 13.6638C14.6259 13.4325 14.9393 13.3021 15.2664 13.3011Z" fill="url(#paint0_linear_1_8134)"/>
<defs>
<linearGradient id="paint0_linear_1_8134" x1="-15.3354" y1="-23.103" x2="73.1536" y2="36.1046" gradientUnits="userSpaceOnUse">
<stop stop-color="#DB2777"/>
<stop offset="1" stop-color="#F97316"/>
</linearGradient>
</defs>
</svg>
