<svg width="32" height="32" viewBox="0 0 32 32" fill="none" xmlns="http://www.w3.org/2000/svg">
<g clip-path="url(#clip0_1_8122)">
<path d="M25.7776 6.24266C25.7766 5.39764 25.4405 4.58751 24.8429 3.99008C24.2452 3.39264 23.435 3.0567 22.59 3.056H21.4442V1.77777C21.4442 1.54203 21.3506 1.31593 21.1839 1.14923C21.0172 0.982536 20.7911 0.888885 20.5553 0.888885C20.3196 0.888885 20.0935 0.982536 19.9268 1.14923C19.7601 1.31593 19.6665 1.54203 19.6665 1.77777V3.056H14.222V1.77777C14.222 1.54203 14.1284 1.31593 13.9617 1.14923C13.795 0.982536 13.5689 0.888885 13.3331 0.888885C13.0974 0.888885 12.8713 0.982536 12.7046 1.14923C12.5379 1.31593 12.4442 1.54203 12.4442 1.77777V3.056H6.99978V1.77777C6.99978 1.54203 6.90613 1.31593 6.73943 1.14923C6.57273 0.982536 6.34664 0.888885 6.11089 0.888885C5.87515 0.888885 5.64905 0.982536 5.48236 1.14923C5.31566 1.31593 5.22201 1.54203 5.22201 1.77777V3.056H4.07623C3.23121 3.0567 2.42098 3.39264 1.82338 3.99008C1.22577 4.58751 0.889613 5.39764 0.888672 6.24266V8H25.7776V6.24266Z" fill="url(#paint0_linear_1_8122)"/>
<path d="M24.8887 16.8889C25.1857 16.8897 25.4825 16.9072 25.7776 16.9413V9.77777H0.888672V21.6347C0.889848 22.4974 1.23308 23.3244 1.84311 23.9344C2.45314 24.5445 3.28018 24.8877 4.14289 24.8889H16.8887C16.8913 22.7679 17.7349 20.7346 19.2347 19.2349C20.7344 17.7352 22.7677 16.8915 24.8887 16.8889ZM8.88867 19.9449C8.88867 20.0105 8.87575 20.0754 8.85065 20.1361C8.82554 20.1967 8.78874 20.2517 8.74236 20.2981C8.69597 20.3445 8.6409 20.3813 8.58029 20.4064C8.51968 20.4315 8.45472 20.4444 8.38912 20.4444H6.72156C6.65596 20.4444 6.591 20.4315 6.53039 20.4064C6.46978 20.3813 6.41471 20.3445 6.36832 20.2981C6.32193 20.2517 6.28514 20.1967 6.26003 20.1361C6.23493 20.0754 6.22201 20.0105 6.22201 19.9449V18.2773C6.22201 18.2117 6.23493 18.1468 6.26003 18.0862C6.28514 18.0255 6.32193 17.9705 6.36832 17.9241C6.41471 17.8777 6.46978 17.8409 6.53039 17.8158C6.591 17.7907 6.65596 17.7778 6.72156 17.7778H8.38912C8.45472 17.7778 8.51968 17.7907 8.58029 17.8158C8.6409 17.8409 8.69597 17.8777 8.74236 17.9241C8.78874 17.9705 8.82554 18.0255 8.85065 18.0862C8.87575 18.1468 8.88867 18.2117 8.88867 18.2773V19.9449ZM8.88867 14.6115C8.88867 14.744 8.83604 14.8711 8.74236 14.9648C8.64867 15.0585 8.52161 15.1111 8.38912 15.1111H6.72156C6.58907 15.1111 6.46201 15.0585 6.36832 14.9648C6.27464 14.8711 6.22201 14.744 6.22201 14.6115V12.944C6.22201 12.8115 6.27464 12.6844 6.36832 12.5908C6.46201 12.4971 6.58907 12.4444 6.72156 12.4444H8.38912C8.52161 12.4444 8.64867 12.4971 8.74236 12.5908C8.83604 12.6844 8.88867 12.8115 8.88867 12.944V14.6115ZM14.222 19.9449C14.222 20.0105 14.2091 20.0754 14.184 20.1361C14.1589 20.1967 14.1221 20.2517 14.0757 20.2981C14.0293 20.3445 13.9742 20.3813 13.9136 20.4064C13.853 20.4315 13.7881 20.4444 13.7224 20.4444H12.0549C11.9893 20.4444 11.9243 20.4315 11.8637 20.4064C11.8031 20.3813 11.748 20.3445 11.7017 20.2981C11.6553 20.2517 11.6185 20.1967 11.5934 20.1361C11.5683 20.0754 11.5553 20.0105 11.5553 19.9449V18.2773C11.5553 18.2117 11.5683 18.1468 11.5934 18.0862C11.6185 18.0255 11.6553 17.9705 11.7017 17.9241C11.748 17.8777 11.8031 17.8409 11.8637 17.8158C11.9243 17.7907 11.9893 17.7778 12.0549 17.7778H13.7224C13.7881 17.7778 13.853 17.7907 13.9136 17.8158C13.9742 17.8409 14.0293 17.8777 14.0757 17.9241C14.1221 17.9705 14.1589 18.0255 14.184 18.0862C14.2091 18.1468 14.222 18.2117 14.222 18.2773V19.9449ZM14.222 14.6115C14.222 14.744 14.1694 14.8711 14.0757 14.9648C13.982 15.0585 13.8549 15.1111 13.7224 15.1111H12.0549C11.9224 15.1111 11.7953 15.0585 11.7017 14.9648C11.608 14.8711 11.5553 14.744 11.5553 14.6115V12.944C11.5553 12.8115 11.608 12.6844 11.7017 12.5908C11.7953 12.4971 11.9224 12.4444 12.0549 12.4444H13.7224C13.8549 12.4444 13.982 12.4971 14.0757 12.5908C14.1694 12.6844 14.222 12.8115 14.222 12.944V14.6115ZM17.3882 15.1111C17.2557 15.1111 17.1287 15.0585 17.035 14.9648C16.9413 14.8711 16.8887 14.744 16.8887 14.6115V12.944C16.8887 12.8115 16.9413 12.6844 17.035 12.5908C17.1287 12.4971 17.2557 12.4444 17.3882 12.4444H19.0558C19.1883 12.4444 19.3153 12.4971 19.409 12.5908C19.5027 12.6844 19.5553 12.8115 19.5553 12.944V14.6115C19.5553 14.744 19.5027 14.8711 19.409 14.9648C19.3153 15.0585 19.1883 15.1111 19.0558 15.1111H17.3882Z" fill="url(#paint1_linear_1_8122)"/>
<path d="M24.8882 18.6667C23.6576 18.6667 22.4546 19.0316 21.4314 19.7154C20.4081 20.3991 19.6106 21.3708 19.1397 22.5078C18.6687 23.6448 18.5455 24.8958 18.7856 26.1028C19.0257 27.3098 19.6183 28.4185 20.4885 29.2887C21.3587 30.1589 22.4674 30.7515 23.6743 30.9916C24.8813 31.2317 26.1324 31.1085 27.2694 30.6375C28.4063 30.1666 29.3781 29.3691 30.0618 28.3458C30.7455 27.3226 31.1105 26.1196 31.1105 24.8889C31.1086 23.2393 30.4524 21.6577 29.2859 20.4912C28.1195 19.3248 26.5379 18.6686 24.8882 18.6667ZM27.2945 27.2952C27.1278 27.4618 26.9017 27.5554 26.666 27.5554C26.4303 27.5554 26.2043 27.4618 26.0376 27.2952L24.2598 25.5174C24.0931 25.3507 23.9994 25.1247 23.9994 24.8889V21.3334C23.9994 21.0976 24.093 20.8715 24.2597 20.7048C24.4264 20.5381 24.6525 20.4445 24.8882 20.4445C25.124 20.4445 25.3501 20.5381 25.5168 20.7048C25.6835 20.8715 25.7771 21.0976 25.7771 21.3334V24.5209L27.2945 26.0383C27.4611 26.205 27.5547 26.431 27.5547 26.6667C27.5547 26.9024 27.4611 27.1285 27.2945 27.2952Z" fill="url(#paint2_linear_1_8122)"/>
</g>
<defs>
<linearGradient id="paint0_linear_1_8122" x1="-13.6548" y1="-4.71906" x2="1.2637" y2="34.4688" gradientUnits="userSpaceOnUse">
<stop stop-color="#DB2777"/>
<stop offset="1" stop-color="#F97316"/>
</linearGradient>
<linearGradient id="paint1_linear_1_8122" x1="-13.6548" y1="-2.13912" x2="32.9652" y2="55.4896" gradientUnits="userSpaceOnUse">
<stop stop-color="#DB2777"/>
<stop offset="1" stop-color="#F97316"/>
</linearGradient>
<linearGradient id="paint2_linear_1_8122" x1="11.3943" y1="8.8528" x2="49.09" y2="37.1439" gradientUnits="userSpaceOnUse">
<stop stop-color="#DB2777"/>
<stop offset="1" stop-color="#F97316"/>
</linearGradient>
<clipPath id="clip0_1_8122">
<rect width="32" height="32" fill="white"/>
</clipPath>
</defs>
</svg>
