<svg width="28" height="29" viewBox="0 0 28 29" fill="none" xmlns="http://www.w3.org/2000/svg">
<path fill-rule="evenodd" clip-rule="evenodd" d="M11.8156 5.42118L14.6481 8.25368L17.4806 5.42118C17.7212 5.18056 17.8537 4.85868 17.8537 4.51556C17.8537 4.17181 17.7212 3.85056 17.4806 3.60993C16.9812 3.10993 16.1687 3.11056 15.6693 3.60993L14.9137 4.36556C14.8437 4.43556 14.7481 4.47493 14.6487 4.47493C14.5493 4.47493 14.4537 4.43556 14.3837 4.36556L13.6281 3.60993C13.3787 3.35993 13.0506 3.23493 12.7224 3.23493C12.3943 3.23493 12.0662 3.35993 11.8162 3.60993C11.5756 3.85056 11.4431 4.17181 11.4431 4.51556C11.4424 4.85868 11.5749 5.18056 11.8156 5.42118ZM18.8787 22.9962C19.5431 23.5606 20.0756 24.2787 20.4181 25.1012H26.1087C26.5068 25.1012 26.8431 24.9512 27.1081 24.6543C27.3737 24.3574 27.4856 24.0068 27.4406 23.6112C27.2281 21.7174 25.6293 20.2887 23.7224 20.2887H22.4737C20.8124 20.2887 19.3362 21.4143 18.8787 22.9962ZM13.6793 22.4174H15.2606C17.7262 22.4174 19.7931 24.2643 20.0681 26.7131C20.1281 27.2431 19.9774 27.7137 19.6218 28.1118C19.2662 28.5093 18.8156 28.7112 18.2818 28.7112H10.6574C10.1237 28.7112 9.67307 28.5093 9.31744 28.1118C8.96182 27.7137 8.81182 27.2431 8.87119 26.7131C9.14682 24.2643 11.2137 22.4174 13.6793 22.4174ZM6.46619 20.2887H5.21744C3.31057 20.2887 1.71182 21.7174 1.49869 23.6112C1.45432 24.0068 1.56619 24.3574 1.83119 24.6543C2.09619 24.9512 2.43244 25.1012 2.83057 25.1012H8.52119C8.86369 24.2787 9.39682 23.5606 10.0612 22.9962C9.60369 21.4143 8.12807 20.2887 6.46619 20.2887ZM8.10869 17.0156C8.10869 15.7656 7.09182 14.7487 5.84182 14.7487C4.59182 14.7487 3.57494 15.7656 3.57494 17.0156C3.57494 18.2656 4.59182 19.2831 5.84182 19.2831C7.09182 19.2831 8.10869 18.2656 8.10869 17.0156ZM17.4406 18.3724C17.4406 16.7349 16.1081 15.4018 14.4699 15.4018C12.8318 15.4018 11.4993 16.7349 11.4993 18.3724C11.4993 20.0106 12.8318 21.3431 14.4699 21.3431C16.1081 21.3431 17.4406 20.0106 17.4406 18.3724ZM23.0981 14.7487C21.8481 14.7487 20.8312 15.7656 20.8312 17.0156C20.8312 18.2656 21.8481 19.2831 23.0981 19.2831C24.3481 19.2831 25.3649 18.2656 25.3649 17.0156C25.3649 15.7656 24.3481 14.7487 23.0981 14.7487ZM21.1343 5.82306C21.1343 7.31368 20.6287 8.68806 19.7799 9.78431C20.5743 10.7056 21.7099 11.2287 22.9387 11.2287C23.5068 11.2287 24.0574 11.1162 24.5749 10.8956C24.7218 10.8331 24.8931 10.8706 24.9999 10.9887L25.8962 11.9787L25.5637 10.5699C25.5318 10.4343 25.5774 10.2924 25.6818 10.2012C26.5931 9.40681 27.1156 8.25931 27.1156 7.05181C27.1156 4.74868 25.2418 2.87556 22.9387 2.87556C22.1412 2.87556 21.3774 3.09743 20.7112 3.51868C20.9843 4.23493 21.1343 5.01181 21.1343 5.82306ZM22.0356 8.32306C21.8287 8.32306 21.6606 8.15493 21.6606 7.94806C21.6606 7.74056 21.8287 7.57306 22.0356 7.57306H25.5787C25.7856 7.57306 25.9537 7.74056 25.9537 7.94806C25.9537 8.15493 25.7856 8.32306 25.5787 8.32306H22.0356ZM22.0356 6.53056C21.8287 6.53056 21.6606 6.36306 21.6606 6.15556C21.6606 5.94868 21.8287 5.78056 22.0356 5.78056H23.6837C23.8906 5.78056 24.0587 5.94868 24.0587 6.15556C24.0587 6.36306 23.8906 6.53056 23.6837 6.53056H22.0356ZM3.13057 7.67181C3.35057 7.67181 3.52994 7.49243 3.52994 7.27243C3.52994 7.05243 3.35119 6.87368 3.13057 6.87368C2.91057 6.87368 2.73119 7.05243 2.73119 7.27243C2.73119 7.49243 2.91057 7.67181 3.13057 7.67181ZM6.65869 9.21306C6.65869 8.99243 6.47932 8.81368 6.25932 8.81368C6.03932 8.81368 5.85994 8.99243 5.85994 9.21306C5.85994 9.43306 6.03932 9.61181 6.25932 9.61181C6.47932 9.61181 6.65869 9.43306 6.65869 9.21306ZM6.25932 5.73118C6.47932 5.73118 6.65869 5.55243 6.65869 5.33243C6.65869 5.11243 6.47932 4.93306 6.25932 4.93306C6.03932 4.93306 5.85994 5.11243 5.85994 5.33243C5.85994 5.55243 6.03932 5.73118 6.25932 5.73118ZM8.70869 8.42868C8.48744 9.20118 8.04994 9.88868 7.43807 10.4218C7.33307 10.5131 7.28744 10.6556 7.31994 10.7906L7.65244 12.1993L6.75619 11.2093C6.64932 11.0912 6.47807 11.0537 6.33119 11.1162C5.81369 11.3374 5.26307 11.4493 4.69494 11.4493C2.39182 11.4493 0.518066 9.57556 0.518066 7.27243C0.518066 4.96931 2.39182 3.09618 4.69494 3.09618C6.13307 3.09618 7.43807 3.81181 8.21119 5.01806C8.17807 5.28181 8.16119 5.55056 8.16119 5.82306C8.16119 6.72931 8.35244 7.61556 8.70869 8.42868ZM7.40869 5.33243C7.40869 5.96618 6.89307 6.48118 6.25932 6.48118C5.98494 6.48118 5.73244 6.38431 5.53432 6.22306L4.25057 7.01931C4.26932 7.10056 4.27994 7.18556 4.27994 7.27243C4.27994 7.35993 4.26932 7.44431 4.25057 7.52618L5.53432 8.32181C5.73182 8.16056 5.98432 8.06368 6.25932 8.06368C6.89307 8.06368 7.40869 8.57931 7.40869 9.21306C7.40869 9.84618 6.89307 10.3618 6.25932 10.3618C5.62557 10.3618 5.10994 9.84618 5.10994 9.21306C5.10994 9.12556 5.12057 9.04118 5.13932 8.95931L3.85557 8.16306C3.65807 8.32431 3.40557 8.42181 3.13057 8.42181C2.49682 8.42181 1.98119 7.90618 1.98119 7.27243C1.98119 6.63868 2.49682 6.12368 3.13057 6.12368C3.40494 6.12368 3.65744 6.22056 3.85557 6.38181L5.13932 5.58556C5.12119 5.50431 5.10994 5.41931 5.10994 5.33243C5.10994 4.69868 5.62557 4.18306 6.25932 4.18306C6.89307 4.18306 7.40869 4.69868 7.40869 5.33243ZM14.3824 9.04931L11.2849 5.95181C10.9024 5.56931 10.6918 5.05931 10.6918 4.51556C10.6918 3.97181 10.9024 3.46181 11.2849 3.07931C12.0768 2.28743 13.3656 2.28743 14.1574 3.07931L14.6481 3.56993L15.1387 3.07931C15.9306 2.28743 17.2193 2.28743 18.0112 3.07931C18.3937 3.46181 18.6043 3.97181 18.6043 4.51556C18.6043 5.05931 18.3937 5.56931 18.0112 5.95181L14.9131 9.04931C14.8399 9.12243 14.7437 9.15931 14.6481 9.15931C14.5518 9.15931 14.4562 9.12243 14.3824 9.04931ZM14.6481 11.5593C13.9081 11.5593 13.1874 11.4206 12.5062 11.1462C12.3574 11.0856 12.1912 11.1287 12.0881 11.2437L10.2762 12.9518L10.9443 10.5362C11.0018 10.3924 10.9656 10.2237 10.8449 10.1168C9.61682 9.02743 8.91182 7.46243 8.91182 5.82306C8.91182 2.65993 11.4849 0.0861816 14.6487 0.0861816C17.8118 0.0861816 20.3856 2.65993 20.3856 5.82306C20.3843 8.98618 17.8112 11.5593 14.6481 11.5593Z" fill="#FAFAFA"/>
</svg>
