<svg width="28" height="28" viewBox="0 0 28 28" fill="none" xmlns="http://www.w3.org/2000/svg">
<path d="M26.2558 11.172L25.0584 9.97331C24.8051 9.72131 24.6664 9.38531 24.6664 9.02931V7.33331C24.6664 5.12797 22.8718 3.33331 20.6664 3.33331H18.9704C18.6198 3.33331 18.2758 3.19064 18.0278 2.94264L16.8291 1.74397C15.2691 0.183975 12.7331 0.183975 11.1731 1.74397L9.97178 2.94264C9.72378 3.19064 9.37978 3.33331 9.02911 3.33331H7.33311C5.12778 3.33331 3.33311 5.12797 3.33311 7.33331V9.02931C3.33311 9.38531 3.19444 9.72131 2.94244 9.97331L1.74378 11.1706C0.987777 11.9266 0.571777 12.932 0.571777 14C0.571777 15.068 0.989111 16.0733 1.74378 16.828L2.94111 18.0266C3.19444 18.2786 3.33311 18.6146 3.33311 18.9706V20.6666C3.33311 22.872 5.12778 24.6666 7.33311 24.6666H9.02911C9.37978 24.6666 9.72378 24.8093 9.97178 25.0573L11.1704 26.2573C11.9504 27.036 12.9744 27.4253 13.9984 27.4253C15.0224 27.4253 16.0464 27.036 16.8264 26.256L18.0251 25.0573C18.2758 24.8093 18.6198 24.6666 18.9704 24.6666H20.6664C22.8718 24.6666 24.6664 22.872 24.6664 20.6666V18.9706C24.6664 18.6146 24.8051 18.2786 25.0584 18.0266L26.2558 16.8293C27.0104 16.0733 27.4278 15.0693 27.4278 14C27.4278 12.9306 27.0118 11.9266 26.2558 11.172ZM20.0731 12.4426L12.0731 17.776C11.8478 17.9266 11.5891 18 11.3331 18C10.9891 18 10.6478 17.8666 10.3904 17.6093L7.72378 14.9426C7.20244 14.4213 7.20244 13.5786 7.72378 13.0573C8.24511 12.536 9.08778 12.536 9.60911 13.0573L11.5024 14.9506L18.5931 10.224C19.2078 9.81464 20.0344 9.97997 20.4424 10.5933C20.8518 11.2066 20.6864 12.0346 20.0731 12.4426Z" fill="#FAFAFA"/>
</svg>
