<svg width="28" height="20" viewBox="0 0 28 20" fill="none" xmlns="http://www.w3.org/2000/svg">
<path d="M0.666992 5.00008C0.666992 3.85081 1.12354 2.74861 1.9362 1.93595C2.74885 1.12329 3.85105 0.666748 5.00033 0.666748H13.667C14.2361 0.666748 14.7995 0.778833 15.3253 0.996604C15.851 1.21437 16.3287 1.53356 16.7311 1.93595C17.1335 2.33834 17.4527 2.81604 17.6705 3.34179C17.8882 3.86753 18.0003 4.43102 18.0003 5.00008V15.0001C18.0003 15.5691 17.8882 16.1326 17.6705 16.6584C17.4527 17.1841 17.1335 17.6618 16.7311 18.0642C16.3287 18.4666 15.851 18.7858 15.3253 19.0036C14.7995 19.2213 14.2361 19.3334 13.667 19.3334H5.00033C3.85105 19.3334 2.74885 18.8769 1.9362 18.0642C1.12354 17.2516 0.666992 16.1494 0.666992 15.0001V5.00008ZM23.6763 17.5841L22.7893 16.9719C20.6255 15.4784 19.3337 13.017 19.3337 10.3879V9.6139C19.3337 6.9853 20.6249 4.52443 22.788 3.03084L23.6763 2.41741C25.2243 1.34808 27.3363 2.45741 27.3363 4.33741V15.6641C27.3363 17.5441 25.2243 18.6534 23.6763 17.5841Z" fill="url(#paint0_linear_1_8181)"/>
<defs>
<linearGradient id="paint0_linear_1_8181" x1="-14.9169" y1="-14.0541" x2="43.8283" y2="48.9365" gradientUnits="userSpaceOnUse">
<stop stop-color="#DB2777"/>
<stop offset="1" stop-color="#F97316"/>
</linearGradient>
</defs>
</svg>
